<svg width="25" height="25" viewBox="0 0 25 25" fill="none" xmlns="http://www.w3.org/2000/svg">
<g clip-path="url(#clip0_24346_817)">
<path d="M21.2194 10.9555C21.1442 10.9241 21.0626 10.9332 20.9925 10.9808C20.9224 11.0284 20.8696 11.1106 20.8457 11.2094C20.8218 11.3081 20.8287 11.4153 20.865 11.5073C20.9013 11.5993 20.9639 11.6686 21.0391 11.7C23.3648 12.6727 24.402 14.1234 24.402 16.4062C24.402 18.4367 22.991 20.0125 22.1507 20.7719C22.1109 20.8077 22.0784 20.8558 22.0559 20.9119C22.0334 20.9679 22.0216 21.0304 22.0216 21.0937V24.0805C21.3071 23.7247 20.6688 23.147 20.1613 22.3969C20.1269 22.3466 20.0832 22.3087 20.0344 22.287C19.9857 22.2652 19.9334 22.2603 19.8828 22.2727C19.7132 22.3156 19.54 22.3766 19.3645 22.4383C19.061 22.5453 18.748 22.6562 18.451 22.6562C16.9228 22.6562 15.8528 22.225 14.759 21.1695C14.6954 21.1081 14.6158 21.0823 14.5377 21.098C14.4597 21.1136 14.3895 21.1692 14.3427 21.2527C14.2959 21.3362 14.2763 21.4407 14.2882 21.5432C14.3001 21.6457 14.3425 21.7378 14.4061 21.7992C15.6124 22.9633 16.7841 23.4375 18.451 23.4375C18.8265 23.4375 19.1788 23.3133 19.5192 23.193C19.6251 23.1547 19.7305 23.1172 19.8346 23.0852C20.9469 24.6273 22.2049 24.9781 22.2596 24.9922C22.3029 25.004 22.3476 25.0029 22.3904 24.9889C22.4333 24.975 22.4732 24.9486 22.5072 24.9117C22.5415 24.8752 22.5691 24.8291 22.588 24.7768C22.6069 24.7245 22.6168 24.6673 22.6167 24.6094V21.2977C24.1533 19.8594 24.9971 18.1281 24.9971 16.4062C24.9971 13.7648 23.7968 12.0328 21.2194 10.9555Z" fill="black"/>
<path d="M19.6412 10.5469C19.6412 4.53437 15.4647 0 9.92732 0C4.36193 0 0.00280762 4.63359 0.00280762 10.5484C0.00280762 14.0945 1.91368 16.6352 3.57342 18.1727V23.357C3.57373 23.4221 3.58637 23.4861 3.61019 23.5431C3.63402 23.6002 3.66829 23.6486 3.70991 23.6839C3.75153 23.7192 3.79919 23.7404 3.84861 23.7456C3.89802 23.7507 3.94763 23.7396 3.99297 23.7133C4.07985 23.6625 6.11094 22.4508 7.84863 19.9563C8.60144 20.1398 9.45303 20.3164 10.2255 20.3164C15.8569 20.3164 19.6412 16.3898 19.6412 10.5469ZM10.2249 19.5352C9.44529 19.5352 8.55919 19.3391 7.79507 19.1477C7.74444 19.1354 7.69226 19.1404 7.64351 19.1622C7.59476 19.1839 7.55106 19.2217 7.51657 19.2719C6.29661 21.0781 4.86301 22.2258 4.16852 22.7203V17.9688C4.1685 17.9054 4.15674 17.8429 4.13424 17.7869C4.11174 17.7308 4.07919 17.6827 4.03938 17.6469C2.46951 16.2289 0.59791 13.8477 0.59791 10.5484C0.59791 5.07109 4.69578 0.78125 9.92732 0.78125C15.1261 0.78125 19.0461 4.97969 19.0461 10.5469C19.0461 15.9234 15.5011 19.5352 10.2249 19.5352Z" fill="black"/>
<path d="M9.82198 8.98438C9.16559 8.98438 8.63178 9.68516 8.63178 10.5469C8.63178 11.4086 9.16559 12.1094 9.82198 12.1094C10.4784 12.1094 11.0122 11.4086 11.0122 10.5469C11.0122 9.68516 10.4784 8.98438 9.82198 8.98438ZM9.82198 11.3281C9.66876 11.3191 9.52408 11.2329 9.41807 11.0874C9.31207 10.9418 9.25291 10.7482 9.25291 10.5469C9.25291 10.3455 9.31207 10.1519 9.41807 10.0064C9.52408 9.86086 9.66876 9.77462 9.82198 9.76562C9.97521 9.77462 10.1199 9.86086 10.2259 10.0064C10.3319 10.1519 10.3911 10.3455 10.3911 10.5469C10.3911 10.7482 10.3319 10.9418 10.2259 11.0874C10.1199 11.2329 9.97521 11.3191 9.82198 11.3281ZM13.9877 8.98438C13.3313 8.98438 12.7975 9.68516 12.7975 10.5469C12.7975 11.4086 13.3313 12.1094 13.9877 12.1094C14.6441 12.1094 15.1779 11.4086 15.1779 10.5469C15.1779 9.68516 14.6441 8.98438 13.9877 8.98438ZM13.9877 11.3281C13.8345 11.3191 13.6898 11.2329 13.5838 11.0874C13.4778 10.9418 13.4186 10.7482 13.4186 10.5469C13.4186 10.3455 13.4778 10.1519 13.5838 10.0064C13.6898 9.86086 13.8345 9.77462 13.9877 9.76562C14.1409 9.77462 14.2856 9.86086 14.3916 10.0064C14.4976 10.1519 14.5568 10.3455 14.5568 10.5469C14.5568 10.7482 14.4976 10.9418 14.3916 11.0874C14.2856 11.2329 14.1409 11.3191 13.9877 11.3281ZM5.65627 9.05859C4.99987 9.05859 4.46606 9.75938 4.46606 10.6211C4.46606 11.4828 4.99987 12.1836 5.65627 12.1836C6.31267 12.1836 6.84647 11.4828 6.84647 10.6211C6.84647 9.75938 6.31267 9.05859 5.65627 9.05859ZM5.65627 11.4023C5.50304 11.3933 5.35836 11.3071 5.25236 11.1616C5.14635 11.016 5.08719 10.8225 5.08719 10.6211C5.08719 10.4197 5.14635 10.2261 5.25236 10.0806C5.35836 9.93508 5.50304 9.84884 5.65627 9.83984C5.8095 9.84884 5.95417 9.93508 6.06018 10.0806C6.16618 10.2261 6.22535 10.4197 6.22535 10.6211C6.22535 10.8225 6.16618 11.016 6.06018 11.1616C5.95417 11.3071 5.8095 11.3933 5.65627 11.4023Z" fill="black"/>
</g>
<defs>
<clipPath id="clip0_24346_817">
<rect width="25" height="25" fill="white"/>
</clipPath>
</defs>
</svg>
