<svg width="25" height="25" viewBox="0 0 25 25" fill="none" xmlns="http://www.w3.org/2000/svg">
<g clip-path="url(#clip0_24346_822)">
<path d="M22.0217 22.6562C22.7334 22.6562 23.2119 22.0281 23.2119 21.0938V0.390625C23.2119 0.287025 23.1805 0.187668 23.1247 0.114411C23.0689 0.041155 22.9932 0 22.9143 0C22.8354 0 22.7597 0.041155 22.7039 0.114411C22.6481 0.187668 22.6168 0.287025 22.6168 0.390625V21.0938C22.6168 21.7734 22.2436 21.875 22.0217 21.875C21.9604 21.875 21.4266 21.8531 21.4266 21.0938V0.390625C21.4266 0.287025 21.3952 0.187668 21.3394 0.114411C21.2836 0.041155 21.2079 0 21.129 0C21.0501 0 20.9744 0.041155 20.9186 0.114411C20.8628 0.187668 20.8315 0.287025 20.8315 0.390625V21.0938C20.8315 22.1195 21.4301 22.6562 22.0217 22.6562ZM2.68085 16.4062H8.63187C8.71079 16.4062 8.78647 16.3651 8.84227 16.2918C8.89807 16.2186 8.92942 16.1192 8.92942 16.0156V8.98438C8.92942 8.88077 8.89807 8.78142 8.84227 8.70816C8.78647 8.6349 8.71079 8.59375 8.63187 8.59375H2.68085C2.60194 8.59375 2.52625 8.6349 2.47045 8.70816C2.41465 8.78142 2.3833 8.88077 2.3833 8.98438V16.0156C2.3833 16.1192 2.41465 16.2186 2.47045 16.2918C2.52625 16.3651 2.60194 16.4062 2.68085 16.4062ZM2.9784 9.375H8.33432V15.625H2.9784V9.375ZM2.68085 6.25H16.9633C17.0422 6.25 17.1179 6.20884 17.1737 6.13559C17.2295 6.06233 17.2609 5.96298 17.2609 5.85938V2.73438C17.2609 2.63077 17.2295 2.53142 17.1737 2.45816C17.1179 2.38491 17.0422 2.34375 16.9633 2.34375H2.68085C2.60194 2.34375 2.52625 2.38491 2.47045 2.45816C2.41465 2.53142 2.3833 2.63077 2.3833 2.73438V5.85938C2.3833 5.96298 2.41465 6.06233 2.47045 6.13559C2.52625 6.20884 2.60194 6.25 2.68085 6.25ZM2.9784 3.125H16.6658V5.46875H2.9784V3.125ZM16.9633 8.59375H11.0123C10.9334 8.59375 10.8577 8.6349 10.8019 8.70816C10.7461 8.78142 10.7147 8.88077 10.7147 8.98438C10.7147 9.08798 10.7461 9.18733 10.8019 9.26059C10.8577 9.33385 10.9334 9.375 11.0123 9.375H16.9633C17.0422 9.375 17.1179 9.33385 17.1737 9.26059C17.2295 9.18733 17.2609 9.08798 17.2609 8.98438C17.2609 8.88077 17.2295 8.78142 17.1737 8.70816C17.1179 8.6349 17.0422 8.59375 16.9633 8.59375ZM16.9633 10.9375H11.0123C10.9334 10.9375 10.8577 10.9787 10.8019 11.0519C10.7461 11.1252 10.7147 11.2245 10.7147 11.3281C10.7147 11.4317 10.7461 11.5311 10.8019 11.6043C10.8577 11.6776 10.9334 11.7188 11.0123 11.7188H16.9633C17.0422 11.7188 17.1179 11.6776 17.1737 11.6043C17.2295 11.5311 17.2609 11.4317 17.2609 11.3281C17.2609 11.2245 17.2295 11.1252 17.1737 11.0519C17.1179 10.9787 17.0422 10.9375 16.9633 10.9375ZM16.9633 13.2812H11.0123C10.9334 13.2812 10.8577 13.3224 10.8019 13.3957C10.7461 13.4689 10.7147 13.5683 10.7147 13.6719C10.7147 13.7755 10.7461 13.8748 10.8019 13.9481C10.8577 14.0213 10.9334 14.0625 11.0123 14.0625H16.9633C17.0422 14.0625 17.1179 14.0213 17.1737 13.9481C17.2295 13.8748 17.2609 13.7755 17.2609 13.6719C17.2609 13.5683 17.2295 13.4689 17.1737 13.3957C17.1179 13.3224 17.0422 13.2812 16.9633 13.2812ZM16.9633 15.625H11.0123C10.9334 15.625 10.8577 15.6662 10.8019 15.7394C10.7461 15.8127 10.7147 15.912 10.7147 16.0156C10.7147 16.1192 10.7461 16.2186 10.8019 16.2918C10.8577 16.3651 10.9334 16.4062 11.0123 16.4062H16.9633C17.0422 16.4062 17.1179 16.3651 17.1737 16.2918C17.2295 16.2186 17.2609 16.1192 17.2609 16.0156C17.2609 15.912 17.2295 15.8127 17.1737 15.7394C17.1179 15.6662 17.0422 15.625 16.9633 15.625ZM16.9633 17.9688H11.0123C10.9334 17.9688 10.8577 18.0099 10.8019 18.0832C10.7461 18.1564 10.7147 18.2558 10.7147 18.3594C10.7147 18.463 10.7461 18.5623 10.8019 18.6356C10.8577 18.7088 10.9334 18.75 11.0123 18.75H16.9633C17.0422 18.75 17.1179 18.7088 17.1737 18.6356C17.2295 18.5623 17.2609 18.463 17.2609 18.3594C17.2609 18.2558 17.2295 18.1564 17.1737 18.0832C17.1179 18.0099 17.0422 17.9688 16.9633 17.9688ZM2.68085 18.75H8.63187C8.71079 18.75 8.78647 18.7088 8.84227 18.6356C8.89807 18.5623 8.92942 18.463 8.92942 18.3594C8.92942 18.2558 8.89807 18.1564 8.84227 18.0832C8.78647 18.0099 8.71079 17.9688 8.63187 17.9688H2.68085C2.60194 17.9688 2.52625 18.0099 2.47045 18.0832C2.41465 18.1564 2.3833 18.2558 2.3833 18.3594C2.3833 18.463 2.41465 18.5623 2.47045 18.6356C2.52625 18.7088 2.60194 18.75 2.68085 18.75ZM16.9633 20.3125H11.0123C10.9334 20.3125 10.8577 20.3537 10.8019 20.4269C10.7461 20.5002 10.7147 20.5995 10.7147 20.7031C10.7147 20.8067 10.7461 20.9061 10.8019 20.9793C10.8577 21.0526 10.9334 21.0938 11.0123 21.0938H16.9633C17.0422 21.0938 17.1179 21.0526 17.1737 20.9793C17.2295 20.9061 17.2609 20.8067 17.2609 20.7031C17.2609 20.5995 17.2295 20.5002 17.1737 20.4269C17.1179 20.3537 17.0422 20.3125 16.9633 20.3125ZM2.68085 21.0938H8.63187C8.71079 21.0938 8.78647 21.0526 8.84227 20.9793C8.89807 20.9061 8.92942 20.8067 8.92942 20.7031C8.92942 20.5995 8.89807 20.5002 8.84227 20.4269C8.78647 20.3537 8.71079 20.3125 8.63187 20.3125H2.68085C2.60194 20.3125 2.52625 20.3537 2.47045 20.4269C2.41465 20.5002 2.3833 20.5995 2.3833 20.7031C2.3833 20.8067 2.41465 20.9061 2.47045 20.9793C2.52625 21.0526 2.60194 21.0938 2.68085 21.0938Z" fill="black"/>
<path d="M2.97839 24.9586H22.0336C22.0377 24.9586 22.0413 24.9555 22.0455 24.9555C22.8216 24.9466 23.5638 24.5361 24.1107 23.813C24.6575 23.0899 24.965 22.1127 24.9662 21.0938V0.390631C24.9662 0.298013 24.9382 0.209187 24.8883 0.143696C24.8384 0.0782049 24.7708 0.0414124 24.7002 0.0414124C24.6297 0.0414124 24.562 0.0782049 24.5121 0.143696C24.4622 0.209187 24.4342 0.298013 24.4342 0.390631V21.0938C24.4342 22.8399 23.3523 24.2602 22.0223 24.2602C20.6922 24.2602 19.6097 22.8399 19.6097 21.0938V0.390631C19.6097 0.197662 19.4907 0.0414124 19.3437 0.0414124H0.300434C0.153444 0.0414124 0.0344238 0.197662 0.0344238 0.390631V21.0938C0.0352115 22.1185 0.345632 23.1009 0.897563 23.8255C1.44949 24.55 2.19785 24.9576 2.97839 24.9586ZM0.566445 0.73985H19.0771V21.0938C19.0771 21.3328 19.0991 21.5649 19.1307 21.793C19.1372 21.8383 19.1426 21.8836 19.1503 21.9281C19.1872 22.1453 19.236 22.3555 19.2997 22.5578C19.311 22.5945 19.3247 22.6289 19.3372 22.6648C19.4014 22.8539 19.4758 23.0359 19.5621 23.2078C19.5722 23.2273 19.58 23.2484 19.5901 23.268C19.6841 23.4477 19.7912 23.6141 19.9061 23.7703C19.9311 23.8039 19.9555 23.8367 19.9816 23.8695C20.0923 24.0102 20.209 24.1438 20.3351 24.2602H2.97839C2.33895 24.2591 1.72592 23.9252 1.27376 23.3316C0.821601 22.738 0.567233 21.9332 0.566445 21.0938V0.73985Z" fill="black"/>
</g>
<defs>
<clipPath id="clip0_24346_822">
<rect width="25" height="25" fill="white"/>
</clipPath>
</defs>
</svg>
