<svg width="25" height="25" viewBox="0 0 25 25" fill="none" xmlns="http://www.w3.org/2000/svg">
<g clip-path="url(#clip0_24346_826)">
<path d="M24.9693 23.0137L22.933 10.7144C22.7513 9.11989 21.2978 7.82301 19.6927 7.82301H17.9677V5.74098C17.9677 2.56324 15.7009 -0.0215454 12.524 -0.0215454C9.34779 -0.0215454 7.03219 2.56322 7.03219 5.74095V7.82299H5.16032C3.55524 7.82299 2.10172 9.11986 1.92477 10.6808L0.0380516 22.9894C-0.0346047 23.6379 0.0923484 24.1492 0.414223 24.5101C0.717715 24.8496 1.15951 25.0222 1.72631 25.0222H23.0537C23.8572 25.0222 24.3177 24.6996 24.5634 24.4285C24.7884 24.1793 25.0431 23.7414 24.9693 23.0137ZM8.59499 5.74059C8.59499 3.42496 10.2094 1.54061 12.5243 1.54061C14.8391 1.54061 16.4055 3.42499 16.4055 5.74059V7.82262H8.59499V5.74059ZM23.1243 23.4484L1.82304 23.4594C1.68866 23.4594 1.55429 23.3875 1.58593 23.1984L3.47186 10.8914C3.56561 10.075 4.33866 9.38551 5.16015 9.38551H7.03244V11.166C6.56681 11.4363 6.25001 11.9347 6.25001 12.5121C6.25001 13.375 6.94962 14.0746 7.81251 14.0746C8.6754 14.0746 9.37501 13.375 9.37501 12.5121C9.37501 11.9355 9.05939 11.4379 8.59494 11.1672V9.38512H16.4051V11.1672C15.941 11.4379 15.625 11.9359 15.625 12.5121C15.625 13.375 16.3246 14.0746 17.1875 14.0746C18.0504 14.0746 18.75 13.375 18.75 12.5121C18.75 11.9347 18.4332 11.4363 17.9676 11.1656V9.38512H19.6926C20.5144 9.38512 21.2871 10.075 21.3871 10.9339L23.4219 23.2211C23.4316 23.321 23.3531 23.4484 23.1242 23.4484L23.1243 23.4484Z" fill="black"/>
</g>
<defs>
<clipPath id="clip0_24346_826">
<rect width="25" height="25" fill="white"/>
</clipPath>
</defs>
</svg>
